<svg id="Capa_1" enable-background="new 0 0 512 512" height="512" viewBox="0 0 512 512" width="512" xmlns="http://www.w3.org/2000/svg"><g><path d="m15 15h269.76v269.76h-269.76z" fill="#edf7fc"/><path d="m149.88 15h134.88v269.76h-134.88z" fill="#c0ddff"/><path d="m0 0v299.76h299.76v-299.76zm269.76 269.76h-239.76v-239.76h239.76z" fill="#b6ecff"/><path d="m169.33 64.09v117.33h-30v-44.79h-40.66v44.79h-30v-117.33h30v42.54h40.66v-42.54z" fill="#455da0"/><path d="m68.455 210.243h58.833v30h-58.833z" fill="#00b3ff"/><path d="m149.88 64.09h19.45v117.33h-19.45z" fill="#214070"/><path d="m299.76 0v299.76h-149.88v-30h119.88v-239.76h-119.88v-30z" fill="#99bdf2"/><g><path d="m227.24 227.24h269.76v269.76h-269.76z" fill="#edf7fc"/><path d="m362.12 227.24h134.88v269.76h-134.88z" fill="#c0ddff"/><path d="m212.24 212.24v299.76h299.76v-299.76zm269.76 269.76h-239.76v-239.76h239.76z" fill="#b6ecff"/><path d="m280.695 422.483h58.833v30h-58.833z" fill="#00b3ff"/><path d="m512 212.24v299.76h-149.88v-30h119.88v-239.76h-119.88v-30z" fill="#99bdf2"/></g><path d="m381.212 334.634h30v58.667h-30z" fill="#214070"/><path d="m370.629 276h-90.167v30h30.084v87.301h30v-87.301h30.083z" fill="#455da0"/><path d="m362.12 276h8.509v30h-8.509z" fill="#214070"/></g></svg>